<?xml version="1.0" standalone="no"?>
<!DOCTYPE svg PUBLIC "-//W3C//DTD SVG 20010904//EN"
 "http://www.w3.org/TR/2001/REC-SVG-20010904/DTD/svg10.dtd">
<svg version="1.0" xmlns="http://www.w3.org/2000/svg"
 width="558.000000pt" height="558.000000pt" viewBox="0 0 558.000000 558.000000"
 preserveAspectRatio="xMidYMid meet">
<metadata>
Created by potrace 1.14, written by Peter Selinger 2001-2017
</metadata>
<g transform="translate(0.000000,558.000000) scale(0.100000,-0.100000)"
fill="#000000" stroke="none">
<path d="M2470 4914 c-120 -15 -139 -19 -225 -39 -197 -47 -416 -141 -595
-255 -30 -19 -61 -40 -68 -47 -8 -7 -23 -18 -35 -24 -12 -7 -29 -18 -37 -26
-8 -7 -53 -41 -100 -74 -129 -92 -189 -135 -217 -159 -7 -5 -17 -10 -23 -10
-5 0 -10 -4 -10 -8 0 -4 -13 -16 -30 -25 -16 -10 -35 -23 -42 -30 -7 -7 -36
-28 -63 -47 -28 -19 -54 -38 -60 -43 -5 -4 -41 -30 -80 -58 -38 -28 -80 -58
-92 -67 -12 -9 -31 -24 -43 -32 -184 -128 -455 -332 -491 -368 -61 -63 -97
-127 -119 -213 -33 -127 -11 -281 58 -399 23 -39 307 -437 321 -450 3 -3 11
-13 16 -22 6 -9 44 -62 85 -118 41 -56 80 -109 85 -118 6 -9 12 -19 15 -22 3
-3 37 -47 74 -99 l69 -94 2 -471 c1 -460 2 -472 23 -526 49 -123 138 -205 270
-248 23 -7 204 -11 544 -12 l511 -1 84 -29 c46 -16 94 -32 106 -35 12 -2 58
-14 101 -24 44 -11 96 -23 115 -26 20 -3 50 -8 66 -11 84 -16 197 -22 356 -19
97 1 181 5 185 8 5 3 32 8 61 11 64 7 230 43 252 55 9 5 18 9 21 9 54 -1 310
111 445 195 91 56 354 243 371 263 6 8 14 14 18 14 9 0 150 103 154 112 2 5
10 8 17 8 7 0 15 4 17 8 2 4 44 37 93 72 50 35 92 68 93 72 2 4 8 8 14 8 6 0
25 12 43 28 19 15 71 54 117 86 165 118 194 141 263 211 39 38 78 80 87 92 14
18 65 113 99 184 9 20 30 95 35 129 2 14 6 39 9 57 7 39 7 163 0 223 -13 118
-98 335 -160 408 -14 16 -25 35 -25 41 0 6 -4 11 -8 11 -4 0 -15 12 -24 28 -9
15 -26 38 -38 52 -11 13 -31 40 -43 60 -12 19 -27 42 -34 50 -41 50 -173 233
-173 241 0 5 -4 9 -10 9 -5 0 -10 6 -10 14 0 8 -4 16 -8 18 -4 2 -21 21 -37
42 l-30 39 -1 461 c0 332 -4 473 -13 504 -43 154 -187 277 -336 288 -22 2
-262 4 -532 4 -290 1 -495 5 -498 11 -4 5 -13 9 -22 9 -8 0 -29 6 -46 14 -65
28 -267 78 -373 91 -27 4 -76 10 -109 15 -87 11 -324 8 -435 -6z m485 -80
c103 -16 238 -43 244 -50 3 -2 -103 -4 -235 -4 -131 0 -252 -2 -268 -4 -16 -3
-57 -7 -90 -10 -34 -4 -104 -15 -156 -27 -126 -26 -121 -25 -176 -44 -27 -9
-56 -18 -64 -20 -60 -14 -291 -122 -385 -180 -22 -14 -47 -28 -55 -32 -8 -4
-21 -12 -30 -19 -8 -7 -53 -41 -100 -76 -231 -173 -450 -442 -580 -713 -90
-189 -169 -453 -174 -582 -1 -13 -3 -23 -6 -23 -8 0 -10 -48 -14 -453 -2 -213
-6 -391 -10 -394 -3 -4 -6 -1 -6 5 0 12 -130 195 -142 200 -5 2 -8 10 -8 17 0
7 -4 15 -8 17 -4 2 -30 35 -57 73 -27 39 -53 75 -58 80 -4 6 -37 51 -73 100
-36 50 -72 98 -80 108 -7 9 -14 20 -14 23 0 2 -5 10 -11 17 -35 40 -124 169
-144 207 -51 102 -65 213 -39 314 34 133 68 170 309 345 99 71 185 134 190
138 6 5 66 49 135 98 69 50 130 93 135 98 6 4 69 50 140 102 72 52 135 99 142
105 7 5 16 10 22 10 5 0 11 4 13 8 2 4 26 23 53 42 28 19 52 37 55 40 3 3 21
17 40 30 19 13 37 27 40 30 3 3 13 10 22 15 9 6 54 37 100 70 90 66 214 139
293 175 28 12 59 27 70 33 56 29 293 100 370 112 23 3 52 8 65 10 14 3 54 8
90 11 36 4 67 9 70 11 6 6 332 -5 385 -13z m557 -153 c116 -53 170 -81 253
-131 85 -51 194 -126 205 -140 3 -4 10 -9 17 -11 42 -15 294 -261 387 -379 37
-47 73 -92 80 -100 6 -9 27 -38 46 -65 19 -28 48 -68 65 -91 16 -22 38 -51 48
-65 9 -13 45 -63 80 -111 l63 -88 -2 -437 c-1 -241 -4 -448 -8 -461 -3 -13 -8
-50 -11 -83 -8 -74 -8 -75 -34 -174 -12 -44 -24 -88 -26 -98 -16 -71 -100
-273 -152 -367 -29 -51 -101 -167 -119 -189 -8 -9 -53 11 -81 36 -60 56 -76
64 -225 114 -185 62 -176 60 -269 66 -54 4 -107 -1 -188 -17 l-113 -22 -29 21
c-15 11 -37 21 -49 21 -11 0 -28 4 -38 10 -9 5 -50 14 -89 20 -59 10 -72 15
-70 28 5 29 59 122 68 116 5 -3 6 2 3 10 -4 10 -1 16 7 16 7 0 10 2 7 6 -3 3
7 32 23 65 16 32 29 64 29 69 0 6 5 10 11 10 5 0 7 5 4 10 -3 6 -1 10 5 10 6
0 9 4 5 9 -3 5 1 15 8 23 8 7 12 19 9 26 -2 6 0 12 5 12 8 0 10 8 16 64 1 13
5 22 10 19 4 -2 7 1 7 6 0 6 -6 11 -12 12 -9 0 -9 2 1 6 11 5 11 7 0 14 -12 7
-11 9 1 9 13 0 13 1 0 11 -10 7 -11 12 -3 15 6 3 9 18 6 36 -3 22 -1 28 8 23
8 -5 10 -4 5 3 -16 26 -15 57 4 99 10 23 16 43 13 43 -3 0 0 7 7 15 8 9 8 15
2 15 -6 0 -15 -12 -20 -27 -9 -25 -11 -25 -11 -6 -1 12 3 24 8 27 4 3 6 16 4
30 -3 13 1 27 8 31 9 6 10 1 5 -19 -4 -15 -2 -26 4 -26 5 0 10 9 10 19 0 11 5
23 10 26 7 4 7 13 0 24 -6 12 -5 22 1 28 8 8 7 13 0 17 -6 4 -11 2 -11 -5 0
-7 -3 -10 -6 -6 -3 3 1 16 10 28 11 17 13 26 4 36 -8 10 -7 13 6 13 9 0 16 5
16 11 0 5 -4 7 -10 4 -6 -3 -7 1 -4 10 4 9 13 14 20 11 8 -3 11 0 7 10 -3 7
-9 14 -15 14 -5 0 -8 10 -6 23 2 15 9 21 23 19 19 -2 19 -2 3 11 -10 8 -15 17
-11 20 3 4 12 2 18 -3 7 -6 24 -11 39 -12 14 -1 26 -5 26 -9 0 -3 6 -6 14 -6
21 0 9 20 -34 56 -22 18 -37 38 -33 43 6 11 15 69 14 101 0 9 4 17 9 17 5 0 7
9 5 19 -3 15 1 18 12 14 11 -4 14 -2 9 5 -4 7 -2 12 4 12 6 0 8 5 5 10 -3 6 0
10 8 10 9 0 13 9 12 25 -2 14 2 28 7 32 7 3 8 1 4 -5 -11 -18 0 -14 15 5 8 9
9 14 3 10 -7 -4 -14 -1 -17 7 -3 8 1 17 9 20 8 3 14 9 13 13 -5 30 2 63 13 57
6 -4 8 -3 5 3 -4 6 3 37 14 69 12 33 21 65 22 71 0 10 4 10 14 1 8 -6 10 -14
6 -17 -4 -3 -9 -19 -10 -36 -2 -27 -1 -28 9 -10 15 24 18 57 8 70 -4 6 -7 17
-7 25 0 19 -12 119 -17 145 -5 27 -93 227 -103 234 -5 3 -15 18 -23 32 -62
108 -78 128 -141 185 -19 17 -55 54 -82 83 -27 30 -52 49 -59 45 -6 -4 -8 -3
-4 4 3 6 1 16 -6 22 -86 73 -100 79 -213 95 -11 1 -22 4 -25 5 -3 1 -9 3 -15
4 -27 5 -72 20 -90 30 -11 5 -22 11 -25 12 -3 0 -13 4 -23 9 -19 8 -34 8 -142
2 -75 -5 -125 -13 -165 -27 -14 -5 -54 -12 -90 -15 -107 -9 -141 -14 -175 -25
-18 -6 -43 -13 -56 -15 -12 -3 -46 -15 -74 -28 -27 -13 -63 -29 -78 -35 -15
-7 -31 -20 -34 -29 -4 -9 -13 -25 -22 -35 -14 -16 -19 -31 -23 -70 -1 -10 -6
-18 -12 -18 -5 0 -1 -10 10 -22 14 -16 14 -19 2 -10 -15 12 -16 9 -13 -28 3
-37 1 -40 -13 -28 -10 7 -14 8 -10 4 5 -5 -7 -20 -26 -32 -58 -40 -176 -167
-176 -191 0 -7 -4 -13 -8 -13 -4 0 -14 -16 -21 -35 -7 -19 -17 -35 -23 -35 -6
0 -3 12 7 26 9 14 14 32 11 40 -3 8 -2 12 3 9 6 -3 8 5 6 18 -3 15 6 34 30 61
19 21 36 42 37 46 2 4 22 19 46 34 23 14 42 32 42 39 0 6 -5 4 -11 -6 -6 -9
-14 -15 -20 -12 -5 4 -9 1 -9 -4 0 -6 -5 -11 -11 -11 -22 0 -110 -104 -128
-153 -9 -22 -8 -27 2 -22 6 4 5 0 -5 -7 -15 -13 -35 -70 -45 -132 -3 -16 -9
-41 -15 -55 -14 -34 -19 -220 -7 -243 6 -12 6 -18 -1 -18 -5 0 -10 5 -10 10 0
6 -4 10 -10 10 -5 0 -1 -15 10 -32 11 -18 25 -44 32 -58 7 -14 27 -46 45 -73
30 -42 33 -53 30 -105 -2 -31 -11 -72 -21 -90 -24 -46 -27 -66 -15 -104 6 -18
13 -46 16 -63 7 -40 11 -59 13 -65 1 -3 2 -8 1 -12 0 -4 8 -24 19 -43 11 -20
18 -40 15 -46 -4 -5 -2 -9 4 -9 8 0 22 -40 23 -67 0 -5 9 -25 19 -45 10 -21
20 -46 22 -57 2 -11 6 -23 9 -27 4 -3 3 -17 -2 -30 -5 -13 -6 -24 -2 -24 11 0
9 -54 -3 -62 -6 -5 -6 -8 1 -8 6 0 11 -6 11 -12 4 -62 13 -103 27 -119 9 -11
16 -25 16 -32 0 -8 3 -17 7 -21 4 -3 8 -14 9 -23 4 -22 42 -99 75 -148 49 -74
47 -90 -20 -135 -19 -13 -78 -119 -86 -154 -1 -6 -5 -20 -9 -31 -61 -164 -67
-175 -107 -196 -21 -10 -44 -19 -51 -19 -36 0 -124 -55 -183 -115 -67 -67 -70
-69 -119 -65 -49 3 -124 90 -355 410 -49 69 -94 130 -98 135 -5 6 -27 37 -50
70 l-41 60 2 445 c1 245 4 450 8 455 4 6 9 35 12 65 3 30 8 66 11 80 6 31 13
66 20 104 3 16 10 37 16 47 5 11 7 19 5 19 -3 0 -1 12 5 28 6 15 12 35 14 44
8 38 90 229 132 308 144 268 334 482 591 666 189 137 499 269 717 309 92 16
159 25 229 30 44 3 81 6 82 8 1 1 156 1 343 0 314 -2 344 -4 383 -22z m1016 4
c62 -19 116 -53 153 -100 30 -38 62 -95 53 -95 -3 0 0 -7 7 -16 11 -13 14 -98
14 -420 1 -222 -2 -404 -5 -404 -4 0 -29 32 -56 71 -27 39 -54 76 -59 82 -6 7
-42 55 -80 107 -192 264 -353 433 -555 582 -100 73 -210 143 -277 176 l-55 27
38 5 c22 3 202 4 402 3 304 -1 372 -4 420 -18z m-1288 -228 c19 -8 46 -28 60
-43 23 -25 24 -26 3 -15 -12 6 -25 16 -28 21 -3 6 -15 10 -26 10 -10 0 -19 4
-19 9 0 5 -9 13 -20 16 -11 3 -20 11 -20 16 0 6 3 8 8 6 4 -2 23 -11 42 -20z
m-1123 -119 c-3 -8 -6 -5 -6 6 -1 11 2 17 5 13 3 -3 4 -12 1 -19z m1626 -663
c4 -8 3 -16 -1 -19 -4 -3 -9 4 -9 15 -2 23 3 25 10 4z m1167 -388 c36 -51 70
-99 77 -107 98 -121 321 -454 313 -468 -1 -1 8 -26 18 -55 36 -95 54 -282 37
-377 -13 -72 -35 -146 -57 -190 -12 -25 -22 -47 -23 -50 -6 -37 -147 -194
-215 -241 -19 -13 -39 -27 -45 -32 -70 -56 -265 -193 -269 -189 -4 3 -6 1 -6
-5 0 -6 -23 -26 -51 -44 -28 -18 -56 -37 -62 -43 -7 -7 -28 -23 -47 -36 -19
-13 -39 -28 -45 -33 -35 -28 -195 -141 -216 -152 -26 -14 -26 -13 -23 14 4 37
-36 84 -63 74 -16 -5 5 20 97 117 14 15 39 44 55 65 17 21 36 44 43 51 6 7 12
17 12 23 0 6 4 11 8 11 4 0 16 15 27 33 10 17 22 34 25 37 7 5 37 55 99 163
55 99 176 409 160 413 -2 0 2 8 10 17 7 10 11 17 8 17 -3 0 1 24 9 53 8 28 17
75 20 102 3 28 7 56 9 63 13 38 19 194 19 509 1 194 3 353 6 353 3 -1 34 -42
70 -93z m-1400 -467 c9 -16 8 -18 -5 -14 -8 4 -15 12 -15 20 0 20 7 17 20 -6z
m-2521 -925 c22 -31 41 -60 41 -65 0 -4 4 -10 8 -12 4 -1 44 -52 87 -113 44
-60 113 -150 153 -199 67 -83 72 -92 56 -103 -10 -7 -23 -13 -28 -13 -6 0 -60
-50 -119 -110 -60 -61 -114 -110 -121 -110 -6 0 -32 -11 -58 -25 -36 -19 -49
-22 -55 -12 -7 10 -15 817 -8 817 1 0 21 -25 44 -55z m2384 -1030 c-15 -11
-21 -24 -19 -50 1 -31 -2 -37 -24 -41 -14 -3 -31 -7 -38 -10 -57 -17 -419 -25
-522 -10 -25 3 -58 8 -75 10 -83 11 -117 18 -156 30 -40 12 -22 14 191 15 129
1 253 4 275 6 96 9 153 17 215 30 14 3 39 7 55 10 17 3 46 9 65 14 51 13 57
13 33 -4z"/>
<path d="M3341 4440 c14 -27 39 -56 39 -43 0 4 -12 22 -26 38 -22 26 -24 27
-13 5z"/>
<path d="M1676 3575 c-3 -8 -1 -15 4 -15 6 0 10 7 10 15 0 8 -2 15 -4 15 -2 0
-6 -7 -10 -15z"/>
<path d="M1680 3541 c0 -6 4 -13 10 -16 6 -3 7 1 4 9 -7 18 -14 21 -14 7z"/>
</g>
</svg>
